<svg id="Layer_5" enable-background="new 0 0 64 64" height="512" viewBox="0 0 64 64" width="512" xmlns="http://www.w3.org/2000/svg" xmlns:xlink="http://www.w3.org/1999/xlink"><linearGradient id="SVGID_1_" gradientUnits="userSpaceOnUse" x1="32" x2="32" y1="63" y2="1"><stop offset="0" stop-color="#9f2fff"/><stop offset="1" stop-color="#0bb1d3"/></linearGradient><path d="m48 63h-2v-2h2zm4-2h-2v2h2zm2 0v2h2v-2zm-26.766-55.581-.35-1.969c1.677-.299 3.398-.45 5.116-.45 6.315 0 12.484 2.104 17.499 5.904.687-.557 1.55-.904 2.501-.904 2.206 0 4 1.794 4 4 0 .951-.348 1.814-.904 2.501 3.8 5.015 5.904 11.184 5.904 17.499 0 2.456-.308 4.895-.914 7.25l-1.937-.499c.565-2.192.851-4.464.851-6.751 0-5.882-1.96-11.628-5.501-16.297-.464.188-.968.297-1.499.297-2.206 0-4-1.794-4-4 0-.531.109-1.036.297-1.499-4.669-3.541-10.415-5.501-16.297-5.501-1.601 0-3.204.141-4.766.419zm22.766 6.581c0 1.103.897 2 2 2s2-.897 2-2-.897-2-2-2-2 .897-2 2zm-42.833 9.385c-1.438 3.359-2.167 6.93-2.167 10.615 0 5.882 1.96 11.628 5.501 16.297.464-.188.968-.297 1.499-.297 2.206 0 4 1.794 4 4 0 .531-.109 1.036-.297 1.5 4.669 3.54 10.415 5.5 16.297 5.5 4.049 0 7.941-.874 11.569-2.597l.858 1.807c-3.898 1.851-8.079 2.79-12.427 2.79-6.315 0-12.484-2.104-17.499-5.904-.687.557-1.55.904-2.501.904-2.206 0-4-1.794-4-4 0-.951.347-1.814.904-2.501-3.8-5.015-5.904-11.184-5.904-17.499 0-3.957.783-7.793 2.328-11.402zm4.833 28.615c-1.103 0-2 .897-2 2s.897 2 2 2 2-.897 2-2-.897-2-2-2zm51-3c0 3.309-2.691 6-6 6h-1v6h-2v-6h-2v6h-2v-6h-2v6h-2v-6h-2c-.658 0-1.284-.135-1.86-.367-3.174 1.565-6.581 2.367-10.14 2.367-12.682 0-23-10.318-23-23 0-4.647 1.42-9.191 4.028-13h-7.028c-2.757 0-5-2.243-5-5 0-2.513 1.864-4.599 4.281-4.949.852-2.97 3.561-5.051 6.719-5.051.588 0 1.163.073 1.715.212 1.022-1.954 3.037-3.212 5.285-3.212 3.309 0 6 2.691 6 6 0 1.052-.292 2.065-.825 2.978.068.115.131.233.191.353 2.455-.867 5.014-1.331 7.634-1.331 12.682 0 23 10.318 23 23 0 2.45-.404 4.849-1.16 7.157.777.512 1.458 1.172 1.987 1.971.396-.086.784-.128 1.173-.128 3.309 0 6 2.691 6 6zm-10.986-8.694c.341-1.082.593-2.185.753-3.306h-18.326c-.431 0-.813.275-.949.684l-.087.263c-.409 1.229-1.553 2.053-2.846 2.053h-2.559c-.551 0-1 .449-1 1v1c0 1.654-1.346 3-3 3h-1c-.551 0-1 .449-1 1s.449 1 1 1h7c1.654 0 3 1.346 3 3 0 .551.449 1 1 1h5.101c-.066-.323-.101-.658-.101-1 0-2.513 1.864-4.599 4.281-4.949.852-2.97 3.561-5.051 6.719-5.051.696 0 1.37.113 2.014.306zm-7.735-23.306h-10.279c-.551 0-1 .449-1 1s.449 1 1 1h4c1.654 0 3 1.346 3 3s-1.346 3-3 3h-7c-.551 0-1 .449-1 1s.449 1 1 1h11c1.654 0 3 1.346 3 3 0 .551.449 1 1 1h6.76c-.827-5.746-3.979-10.739-8.481-14zm-28.703-10.007c.888.53 1.663 1.247 2.25 2.135.397-.086.785-.128 1.174-.128 1.422 0 2.729.5 3.758 1.33.156-.427.242-.874.242-1.33 0-2.206-1.794-4-4-4-1.434 0-2.719.778-3.424 1.993zm-9.576 12.007h13c2.206 0 4-1.794 4-4s-1.794-4-4-4c-.418 0-.849.08-1.316.244l-.828.29-.396-.783c-.857-1.697-2.566-2.751-4.46-2.751-2.451 0-4.522 1.755-4.925 4.173l-.142.85-1.032-.028c-1.555.005-2.901 1.351-2.901 3.005s1.346 3 3 3zm5 15c0 1.021.098 2.017.24 3h6.76c.551 0 1-.449 1-1s-.449-1-1-1c-1.654 0-3-1.346-3-3s1.346-3 3-3h3c.551 0 1-.449 1-1s-.449-1-1-1h-8.793c-.789 2.234-1.207 4.602-1.207 7zm21 21c2.884 0 5.657-.576 8.27-1.703-.085-.096-.167-.194-.245-.297h-6.025c-1.654 0-3-1.346-3-3 0-.551-.449-1-1-1h-7c-1.654 0-3-1.346-3-3s1.346-3 3-3h1c.551 0 1-.449 1-1v-1c0-1.654 1.346-3 3-3h2.559c.431 0 .813-.275.949-.684l.087-.263c.409-1.229 1.553-2.053 2.846-2.053h18.515c.016-.333.044-.665.044-1 0-.338-.035-.666-.051-1h-6.949c-1.654 0-3-1.346-3-3 0-.551-.449-1-1-1h-11c-1.654 0-3-1.346-3-3s1.346-3 3-3h7c.551 0 1-.449 1-1s-.449-1-1-1h-4c-1.654 0-3-1.346-3-3s1.346-3 3-3h6.886c-2.703-1.27-5.707-2-8.886-2-2.422 0-4.786.433-7.053 1.244.032.248.053.499.053.756 0 3.309-2.691 6-6 6h-3.474c-.98 1.242-1.816 2.582-2.488 4h7.962c1.654 0 3 1.346 3 3s-1.346 3-3 3h-3c-.551 0-1 .449-1 1s.449 1 1 1c1.654 0 3 1.346 3 3s-1.346 3-3 3h-6.373c2.252 9.169 10.519 16 20.373 16zm29-6c0-2.206-1.794-4-4-4-.418 0-.849.08-1.316.244l-.828.29-.396-.783c-.857-1.697-2.566-2.751-4.46-2.751-2.451 0-4.522 1.755-4.925 4.173l-.142.85-1.032-.028c-1.555.005-2.901 1.351-2.901 3.005s1.346 3 3 3h13c2.206 0 4-1.794 4-4z" fill="url(#SVGID_1_)"/></svg>